<svg width="28" height="28" viewBox="0 0 28 28" fill="none" xmlns="http://www.w3.org/2000/svg">
<path d="M8.589 13.358C7.63519 13.1929 6.84647 14.3118 6.36957 15.1006C6.53465 13.8349 7.96536 11.9273 8.589 13.358Z" fill="#FFC600"/>
<path d="M6.53464 13.358C6.84646 12.2391 7.65353 11.7622 7.96535 12.0924C7.32336 12.4042 6.84646 12.7344 6.53464 13.358Z" fill="#FFC600"/>
<path d="M8.91916 15.1189C9.39606 14.642 9.39606 14.1651 8.60734 13.8533C7.81861 13.5415 6.86481 14.8071 6.69973 15.926C7.17663 15.2656 8.589 14.1651 8.91916 15.1189Z" fill="#FFC600"/>
<path d="M16.6964 18.1271C16.8614 16.6963 15.4307 15.9076 15.1006 14.4769C14.7887 13.0462 17.32 10.6617 15.7426 8.13045C18.769 10.515 16.3845 11.9457 17.8152 13.8533C17.3383 13.6882 16.8614 13.3764 16.5496 12.8995C15.7426 14 18.604 15.4307 16.6964 18.1271Z" fill="#FFC600"/>
<path d="M11.9273 6.36958C12.2392 6.36958 12.8811 6.6814 12.7161 6.84648C11.9273 7.63521 10.8084 7.32339 9.85464 8.11211C10.1848 7.17665 11.7806 7.01157 11.9273 6.36958Z" fill="#FFC600"/>
<path d="M10.9735 9.54281C10.8084 9.54281 10.8084 9.37773 10.8084 9.23099C10.9735 9.54281 11.2853 9.39607 11.1202 8.91917H11.7622C11.3037 9.06591 11.1386 9.54281 10.9735 9.54281ZM14.6236 7.32338C14.9355 7.01156 14.6236 6.36958 13.1929 6.20449C14.6236 6.84648 12.2391 6.99322 12.2391 8.27719C11.4504 8.58901 10.8084 8.11211 10.4966 8.44227C10.1848 8.77243 9.70788 8.60735 9.85462 8.13045C9.54279 8.29553 9.5428 8.60735 9.68954 8.91917C9.68954 9.08425 9.85462 9.08425 10.0014 9.23099L10.1664 9.39607C9.68953 9.87297 9.52445 10.1848 10.0014 10.6617C10.1664 10.3499 10.4783 10.0197 10.7901 9.70789C11.1019 9.87297 11.5788 9.70789 12.2208 9.06591C11.7439 10.9735 10.3132 11.1386 9.83627 11.1386C10.1481 11.4504 11.909 11.7806 12.0557 10.9735C12.5326 9.23099 14.2751 8.42392 12.8444 8.42392C12.8811 8.13045 14.3118 7.65354 14.6236 7.32338Z" fill="#FFC600"/>
<path d="M15.2656 6.53465C15.9076 6.84647 16.3845 7.32337 16.6963 7.80027C16.8614 6.84647 16.3845 5.89266 15.7425 5.25068C15.5775 5.10394 15.1006 6.05774 15.2656 6.53465Z" fill="#FFC600"/>
<path d="M4.15014 12.4042C4.79213 10.8084 6.05775 9.54282 7.48846 8.75409C7.96536 7.63521 7.80028 7.01156 12.0924 5.26904C12.2575 4.62705 12.2575 3.83833 12.4042 3.83833C12.8811 4.00341 13.358 4.31523 13.6698 4.79213H14.1467C14.3118 4.15015 14.4586 3.52651 14.7887 2.88453C15.1006 2.40762 15.7425 2.40762 16.5313 3.04961C17.4851 3.69159 18.2738 4.48031 19.0808 5.43412C20.5116 5.91102 21.7772 6.86483 22.731 7.98371C22.2541 7.67189 21.6121 7.50681 20.9885 7.34173C22.2541 8.46061 22.731 10.3682 22.2541 11.9457C21.9423 10.3499 20.9885 9.08425 19.7045 8.46061C20.1814 10.2031 18.1087 9.5795 17.32 8.29553C17.4851 8.46061 17.6318 8.46061 17.962 8.29553C17.962 6.55301 17.32 4.95722 16.0544 3.69159C15.4124 3.04961 14.9355 4.48032 14.7887 5.5992C14.7887 5.91102 14.3118 6.24118 14 6.24118C14.1651 6.0761 14.1651 5.92936 14.1651 5.5992C13.0462 5.76428 12.0924 6.0761 11.1386 6.71809C9.23098 7.50681 8.75408 7.98371 8.27718 9.41442C6.53465 10.0197 5.26903 11.1386 4.15014 12.4042Z" fill="#FFC600"/>
<path d="M13.6882 12.0924C14.642 13.5231 14.642 15.2656 13.6882 16.6963C14 14.9538 12.8994 11.4504 11.7806 13.2113C12.4225 13.3764 12.8994 14.1651 12.7344 14.9538C12.4225 14.1651 11.4687 13.8349 10.6617 14C10.1848 14.1651 9.54279 14 9.23096 13.5231C8.75406 12.7344 9.54278 11.7806 7.96534 11.7806C9.87295 10.8268 9.39605 12.7344 10.1848 12.8995C10.9735 13.0646 11.4504 12.4226 11.7806 12.1108C12.0924 11.6338 12.7344 11.4688 13.2113 11.7989C13.5231 11.0102 13.0462 9.5795 13.8532 8.93752C14.3301 8.6257 15.1189 8.77243 15.5958 9.1026C14.9538 9.06591 14.1467 9.87298 13.6882 12.0924Z" fill="#FFC600"/>
<path d="M9.39606 19.7228C9.23098 19.5577 9.08424 19.2459 9.08424 18.9341C9.24933 19.0992 9.56115 19.2459 9.87297 19.2459C9.70789 19.5577 9.5428 19.7228 9.39606 19.7228ZM11.3037 17.6501C11.4688 17.6501 11.6155 17.8152 11.7806 17.6501C11.9457 17.4851 11.7806 17.0082 11.6155 16.8614C11.7806 16.8614 12.4042 16.8614 12.4042 17.1732C12.4042 17.8152 11.9273 17.962 10.9735 18.4389C11.1386 18.2921 11.1386 17.962 11.3037 17.6501ZM7.48846 17.0082C7.65354 16.8431 7.80028 16.6963 8.13044 16.5312C8.13044 17.0081 8.13044 17.32 8.29552 17.7969C8.1121 17.962 7.48846 17.4851 7.48846 17.0082ZM4.93886 14.642C4.62704 14.3302 4.29688 14 3.98506 13.6882C4.15014 13.5231 4.46196 13.2113 4.77378 13.2113C5.0856 13.2113 5.25068 13.3764 5.0856 13.3764C4.92052 13.3764 4.77378 13.3764 4.77378 13.6882C4.77378 14 4.93886 14.1651 5.0856 14.3302C5.26903 14.3118 5.10395 14.642 4.93886 14.642ZM23.373 8.60733C24.3268 11.4687 24.1617 14.4769 23.0611 17.1916C23.2262 15.9259 22.1073 14.1651 22.5842 12.1107C20.5116 14.0183 23.7031 18.9341 19.0992 22.1073C19.7412 20.5115 20.053 18.9341 19.8879 17.1916C20.1997 17.3567 20.3648 17.5034 20.5299 17.8336C21.0068 16.2378 20.8417 14.4952 20.2181 12.9178C20.5299 12.9178 21.0068 13.2296 21.1719 13.3947C21.337 10.5333 19.2643 10.3682 18.7874 9.57948C18.7874 10.3682 19.7412 11.0102 19.9063 12.1291C19.4294 11.8173 18.7874 11.8173 18.3105 11.8173C19.4294 13.0829 19.9063 14.6787 19.5761 16.2561C19.0992 15.9443 18.6223 15.6141 18.1454 15.6141C18.9341 17.0448 18.9341 18.6406 18.3105 20.053C18.3105 19.5761 18.1454 19.0992 17.9986 18.7874C17.6868 19.9062 16.8798 20.695 15.7792 20.8601C16.5679 20.2181 16.5679 18.9524 15.9443 18.3105C15.7792 18.1454 15.4674 17.9986 15.3023 17.8336C14.0367 17.3567 12.606 18.1454 11.964 21.0068C11.1753 21.3186 8.47895 20.695 10.0564 19.0992C11.0102 19.411 13.3947 17.8336 13.2296 16.7147C12.9178 15.449 11.7989 14.4952 10.3682 14.642C8.93751 14.642 7.9837 15.9076 6.88316 16.5496C5.92935 16.3845 5.61753 16.2378 5.14063 14.9538C5.14063 14.1651 5.92935 13.6882 5.92935 12.8811C5.28737 13.0462 5.14063 11.9273 3.70992 13.0462C3.54484 12.8811 3.70992 12.4042 3.70992 12.4042C3.3981 12.716 3.23302 13.0462 3.06794 13.5231C3.37976 14 3.70992 14.4769 4.33356 14.7887C5.12229 16.8614 5.92935 17.1732 6.71808 17.1732C7.0299 17.6501 7.67188 18.127 8.31386 18.2921C8.14878 17.6501 8.14878 17.1732 8.31386 16.5496C10.0564 14.8071 11.3404 15.9076 11.4871 16.3845C10.0564 16.6963 11.0102 19.8696 8.62568 18.4572C8.62568 18.9341 8.62568 19.5761 8.9375 20.053C9.24933 22.2724 11.964 21.6488 12.7527 22.1257C12.5876 20.053 13.8716 18.4755 14.8254 18.6406C15.7792 18.8057 16.091 20.3831 14.3485 21.9789C15.4674 22.144 16.5679 21.8139 17.5217 21.1902C17.3567 22.4558 16.8798 23.5747 16.091 24.5285C21.9606 23.2629 25.6107 17.5401 24.3451 11.6705C24.3268 10.4966 23.9966 9.39606 23.373 8.60733Z" fill="#FFC600"/>
</svg>
